HIERARCHY
ROOT Hips
{
	OFFSET 0.000000 71.427986 0.000000
	CHANNELS 6 Xposition Yposition Zposition Xrotation Yrotation Zrotation
	JOINT Pelvis
	{
		OFFSET 0.000000 0.000000 0.000000
		CHANNELS 3 Xrotation Yrotation Zrotation
		JOINT LeftUpLeg
		{
			OFFSET 6.797100 -2.508499 -1.318700
			CHANNELS 3 Xrotation Yrotation Zrotation
			JOINT LeftLeg
			{
				OFFSET 0.069008 -29.241863 0.690200
				CHANNELS 3 Xrotation Yrotation Zrotation
				JOINT LeftFoot
				{
					OFFSET -0.069008 -29.568123 -0.266800
					CHANNELS 3 Xrotation Yrotation Zrotation
					JOINT LeftToeBase
					{
						OFFSET 3.145500 -8.631000 16.059900
						CHANNELS 3 Xrotation Yrotation Zrotation
						End Site
						{
							OFFSET 0.000000 18.501587 0.000000
						}
					}
				}
			}
			JOINT Left_ShortSleeve
			{
				OFFSET 0.265923 -10.480953 1.153800
				CHANNELS 3 Xrotation Yrotation Zrotation
				End Site
				{
					OFFSET 1.725763 19.823879 0.000000
				}
			}
		}
		JOINT RightUpLeg
		{
			OFFSET -6.797100 -2.508499 -1.318700
			CHANNELS 3 Xrotation Yrotation Zrotation
			JOINT RightLeg
			{
				OFFSET -0.082453 -29.241932 0.688000
				CHANNELS 3 Xrotation Yrotation Zrotation
				JOINT RightFoot
				{
					OFFSET 0.082453 -29.568058 -0.264600
					CHANNELS 3 Xrotation Yrotation Zrotation
					JOINT RightToeBase
					{
						OFFSET -3.115300 -8.682800 16.113400
						CHANNELS 3 Xrotation Yrotation Zrotation
						End Site
						{
							OFFSET 0.000000 18.567114 0.000000
						}
					}
				}
			}
			JOINT Right_ShortSleeve
			{
				OFFSET -0.265923 -10.480953 1.153800
				CHANNELS 3 Xrotation Yrotation Zrotation
				End Site
				{
					OFFSET -1.725766 19.823910 0.000000
				}
			}
		}
	}
	JOINT Spine
	{
		OFFSET 0.000000 13.368103 0.470500
		CHANNELS 3 Xrotation Yrotation Zrotation
		JOINT Spine1
		{
			OFFSET 0.147000 13.837402 0.538800
			CHANNELS 3 Xrotation Yrotation Zrotation
			JOINT Spine2
			{
				OFFSET 0.168000 16.242897 -1.435500
				CHANNELS 3 Xrotation Yrotation Zrotation
				JOINT Neck
				{
					OFFSET 0.217200 18.631500 -1.679100
					CHANNELS 3 Xrotation Yrotation Zrotation
					JOINT Head
					{
						OFFSET 0.000000 6.599396 1.385900
						CHANNELS 3 Xrotation Yrotation Zrotation
						JOINT Hat
						{
							OFFSET -0.532200 27.220596 -10.096100
							CHANNELS 3 Xrotation Yrotation Zrotation
							End Site
							{
								OFFSET 0.000000 22.029861 0.000000
							}
						}
						JOINT HairD
						{
							OFFSET -10.777400 17.437393 -1.325900
							CHANNELS 3 Xrotation Yrotation Zrotation
							JOINT HairD1
							{
								OFFSET -3.290299 -11.051193 1.062200
								CHANNELS 3 Xrotation Yrotation Zrotation
								End Site
								{
									OFFSET 0.000000 11.579437 0.000000
								}
							}
						}
						JOINT HairB
						{
							OFFSET -10.777400 17.437393 1.467900
							CHANNELS 3 Xrotation Yrotation Zrotation
							JOINT HairB1
							{
								OFFSET -1.561200 -12.956299 3.590200
								CHANNELS 3 Xrotation Yrotation Zrotation
								End Site
								{
									OFFSET 0.000000 13.534866 0.000000
								}
							}
						}
						JOINT HairA
						{
							OFFSET 9.713100 17.437393 1.467900
							CHANNELS 3 Xrotation Yrotation Zrotation
							JOINT HairA1
							{
								OFFSET 1.561200 -12.956299 3.590200
								CHANNELS 3 Xrotation Yrotation Zrotation
								End Site
								{
									OFFSET 0.000000 13.534866 0.000000
								}
							}
						}
						JOINT HairC
						{
							OFFSET 9.713100 17.437393 -1.325900
							CHANNELS 3 Xrotation Yrotation Zrotation
							JOINT HairC1
							{
								OFFSET 3.290300 -11.051193 1.062200
								CHANNELS 3 Xrotation Yrotation Zrotation
								End Site
								{
									OFFSET 0.000000 11.579437 0.000000
								}
							}
						}
					}
				}
				JOINT LeftShoulder
				{
					OFFSET 5.101800 15.108002 -2.763700
					CHANNELS 3 Xrotation Yrotation Zrotation
					JOINT LeftArm
					{
						OFFSET 9.825497 2.506317 -1.597400
						CHANNELS 3 Xrotation Yrotation Zrotation
						JOINT LeftForeArm
						{
							OFFSET 21.966244 0.000000 0.000000
							CHANNELS 3 Xrotation Yrotation Zrotation
							JOINT LeftHand
							{
								OFFSET 33.879036 0.000000 0.000000
								CHANNELS 3 Xrotation Yrotation Zrotation
								JOINT LeftHandThumb1
								{
									OFFSET 6.715286 -2.359680 3.363841
									CHANNELS 3 Xrotation Yrotation Zrotation
									JOINT LeftHandThumb2
									{
										OFFSET 2.507072 -1.447464 1.447461
										CHANNELS 3 Xrotation Yrotation Zrotation
										JOINT LeftHandThumb3
										{
											OFFSET 2.898338 -1.673355 1.673357
											CHANNELS 3 Xrotation Yrotation Zrotation
											End Site
											{
												OFFSET -0.295959 3.727692 -0.131651
											}
										}
									}
								}
								JOINT LeftHandIndex1
								{
									OFFSET 14.190811 -0.254547 3.840278
									CHANNELS 3 Xrotation Yrotation Zrotation
									JOINT LeftHandIndex2
									{
										OFFSET 3.551727 0.000000 -0.000000
										CHANNELS 3 Xrotation Yrotation Zrotation
										JOINT LeftHandIndex3
										{
											OFFSET 2.894196 0.000000 0.000000
											CHANNELS 3 Xrotation Yrotation Zrotation
											End Site
											{
												OFFSET -1.000603 2.690872 0.366626
											}
										}
									}
								}
								JOINT LeftHandMiddle1
								{
									OFFSET 13.776489 0.000000 0.000000
									CHANNELS 3 Xrotation Yrotation Zrotation
									JOINT LeftHandMiddle2
									{
										OFFSET 3.438232 0.000000 0.000000
										CHANNELS 3 Xrotation Yrotation Zrotation
										JOINT LeftHandMiddle3
										{
											OFFSET 3.691551 0.000000 0.000000
											CHANNELS 3 Xrotation Yrotation Zrotation
											End Site
											{
												OFFSET -1.082298 3.499527 0.457670
											}
										}
									}
								}
								JOINT LeftHandRing1
								{
									OFFSET 13.966164 -0.268127 -3.067488
									CHANNELS 3 Xrotation Yrotation Zrotation
									JOINT LeftHandRing2
									{
										OFFSET 3.162567 0.000000 0.000000
										CHANNELS 3 Xrotation Yrotation Zrotation
										JOINT LeftHandRing3
										{
											OFFSET 3.324348 0.000000 0.000000
											CHANNELS 3 Xrotation Yrotation Zrotation
											End Site
											{
												OFFSET -0.861900 3.184998 0.405154
											}
										}
									}
								}
								JOINT LeftHandPinky1
								{
									OFFSET 13.131393 -0.168503 -5.746925
									CHANNELS 3 Xrotation Yrotation Zrotation
									JOINT LeftHandPinky2
									{
										OFFSET 2.849182 0.000000 0.000000
										CHANNELS 3 Xrotation Yrotation Zrotation
										JOINT LeftHandPinky3
										{
											OFFSET 2.805038 0.000000 0.000000
											CHANNELS 3 Xrotation Yrotation Zrotation
											End Site
											{
												OFFSET -0.882500 2.642609 0.325652
											}
										}
									}
								}
							}
							JOINT Left_Sleeve
							{
								OFFSET 6.592125 -0.646545 0.805568
								CHANNELS 3 Xrotation Yrotation Zrotation
								End Site
								{
									OFFSET -0.000179 20.275787 -0.000000
								}
							}
						}
					}
				}
				JOINT RightShoulder
				{
					OFFSET -5.731700 15.108002 -2.763700
					CHANNELS 3 Xrotation Yrotation Zrotation
					JOINT RightArm
					{
						OFFSET -9.825497 2.506317 -1.597400
						CHANNELS 3 Xrotation Yrotation Zrotation
						JOINT RightForeArm
						{
							OFFSET -21.966242 0.000000 0.000000
							CHANNELS 3 Xrotation Yrotation Zrotation
							JOINT RightHand
							{
								OFFSET -33.879032 0.000000 0.000000
								CHANNELS 3 Xrotation Yrotation Zrotation
								JOINT RightHandThumb1
								{
									OFFSET -6.715286 -2.359680 3.363841
									CHANNELS 3 Xrotation Yrotation Zrotation
									JOINT RightHandThumb2
									{
										OFFSET -2.507072 -1.447464 1.447461
										CHANNELS 3 Xrotation Yrotation Zrotation
										JOINT RightHandThumb3
										{
											OFFSET -2.898338 -1.673355 1.673357
											CHANNELS 3 Xrotation Yrotation Zrotation
											End Site
											{
												OFFSET 0.295959 3.727692 -0.131651
											}
										}
									}
								}
								JOINT RightHandIndex1
								{
									OFFSET -14.190811 -0.254547 3.840278
									CHANNELS 3 Xrotation Yrotation Zrotation
									JOINT RightHandIndex2
									{
										OFFSET -3.551727 0.000000 -0.000000
										CHANNELS 3 Xrotation Yrotation Zrotation
										JOINT RightHandIndex3
										{
											OFFSET -2.894196 0.000000 0.000000
											CHANNELS 3 Xrotation Yrotation Zrotation
											End Site
											{
												OFFSET 1.000603 2.690872 0.366626
											}
										}
									}
								}
								JOINT RightHandMiddle1
								{
									OFFSET -13.776489 0.000000 0.000000
									CHANNELS 3 Xrotation Yrotation Zrotation
									JOINT RightHandMiddle2
									{
										OFFSET -3.438232 0.000000 0.000000
										CHANNELS 3 Xrotation Yrotation Zrotation
										JOINT RightHandMiddle3
										{
											OFFSET -3.691551 0.000000 0.000000
											CHANNELS 3 Xrotation Yrotation Zrotation
											End Site
											{
												OFFSET 1.082298 3.499527 0.457670
											}
										}
									}
								}
								JOINT RightHandRing1
								{
									OFFSET -13.966164 -0.268127 -3.067488
									CHANNELS 3 Xrotation Yrotation Zrotation
									JOINT RightHandRing2
									{
										OFFSET -3.162567 0.000000 0.000000
										CHANNELS 3 Xrotation Yrotation Zrotation
										JOINT RightHandRing3
										{
											OFFSET -3.324348 0.000000 0.000000
											CHANNELS 3 Xrotation Yrotation Zrotation
											End Site
											{
												OFFSET 0.861900 3.184998 0.405154
											}
										}
									}
								}
								JOINT RightHandPinky1
								{
									OFFSET -13.131393 -0.168503 -5.746925
									CHANNELS 3 Xrotation Yrotation Zrotation
									JOINT RightHandPinky2
									{
										OFFSET -2.849182 0.000000 0.000000
										CHANNELS 3 Xrotation Yrotation Zrotation
										JOINT RightHandPinky3
										{
											OFFSET -2.805038 0.000000 0.000000
											CHANNELS 3 Xrotation Yrotation Zrotation
											End Site
											{
												OFFSET 0.882500 2.642609 0.325652
											}
										}
									}
								}
							}
							JOINT Right_Sleeve
							{
								OFFSET -6.592125 -0.646545 0.805568
								CHANNELS 3 Xrotation Yrotation Zrotation
								End Site
								{
									OFFSET 0.000179 20.275787 -0.000000
								}
							}
						}
					}
				}
				JOINT Bind_Right_JacketString
				{
					OFFSET -3.534800 11.969597 7.200700
					CHANNELS 3 Xrotation Yrotation Zrotation
					JOINT Bind_Right_JacketString1
					{
						OFFSET -0.319900 -6.102600 2.794100
						CHANNELS 3 Xrotation Yrotation Zrotation
						End Site
						{
							OFFSET 0.000000 6.719452 0.000000
						}
					}
				}
				JOINT Bind_Left_JacketString
				{
					OFFSET 2.904800 11.969597 7.200700
					CHANNELS 3 Xrotation Yrotation Zrotation
					JOINT Bind_Left_JacketString1
					{
						OFFSET 0.364800 -5.904503 3.186800
						CHANNELS 3 Xrotation Yrotation Zrotation
						End Site
						{
							OFFSET 0.000000 6.719513 0.000000
						}
					}
				}
				JOINT HairE
				{
					OFFSET 5.915200 17.612701 -11.592200
					CHANNELS 3 Xrotation Yrotation Zrotation
					JOINT HairE1
					{
						OFFSET 0.289200 -7.171898 -1.284500
						CHANNELS 3 Xrotation Yrotation Zrotation
						End Site
						{
							OFFSET 0.000000 7.291756 0.000000
						}
					}
				}
				JOINT HairF
				{
					OFFSET -0.864800 17.612701 -11.592200
					CHANNELS 3 Xrotation Yrotation Zrotation
					JOINT HairF1
					{
						OFFSET 0.000000 -14.087097 -2.127501
						CHANNELS 3 Xrotation Yrotation Zrotation
						End Site
						{
							OFFSET 0.000000 14.246841 0.000000
						}
					}
				}
				JOINT HairG
				{
					OFFSET -8.087700 17.612701 -11.592200
					CHANNELS 3 Xrotation Yrotation Zrotation
					JOINT HairG1
					{
						OFFSET -0.293600 -6.081398 -0.910100
						CHANNELS 3 Xrotation Yrotation Zrotation
						End Site
						{
							OFFSET 0.000000 6.156120 0.000000
						}
					}
				}
			}
		}
	}
	JOINT Pouch
	{
		OFFSET 0.000000 4.394501 10.847300
		CHANNELS 3 Xrotation Yrotation Zrotation
		End Site
		{
			OFFSET 0.000000 21.880577 0.000000
		}
	}
	JOINT Bag
	{
		OFFSET -13.229000 4.813004 -0.593300
		CHANNELS 3 Xrotation Yrotation Zrotation
		End Site
		{
			OFFSET 0.000000 21.880577 0.000000
		}
	}
	JOINT OccupyGuyFacialAnim_Joint
	{
		OFFSET 1.000000 -70.206398 -1.655000
		CHANNELS 3 Xrotation Yrotation Zrotation
		End Site
		{
			OFFSET 0.000000 21.880577 0.000000
		}
	}
}
MOTION
Frames: 4
Frame Time: 0.016667
-0.863813 63.625992 0.767559 3.013700 -58.244568 6.565687 -0.000000 0.000001 -0.000000 -32.626168 11.151008 23.547521 43.775932 -8.035242 -9.925910 -13.046864 -2.694401 -7.240134 0.000000 -0.000002 -0.000000 0.000002 -0.000003 -0.000001 -30.694979 -9.745461 -24.744450 48.823640 2.523434 -7.653102 -22.400075 2.490749 19.772308 0.000000 -0.000000 -0.000000 -0.000001 0.000001 -0.000001 11.191568 0.099417 -2.783149 8.434585 0.027673 -5.592319 8.457033 0.027900 -5.591862 -21.556285 25.063266 12.062613 -0.293599 25.465688 -3.208707 -0.000000 0.000000 0.000000 -0.000000 0.000000 0.000000 -0.000000 0.000000 0.000001 -0.000000 0.000000 0.000000 -0.000000 -0.000000 -0.000000 -0.000000 0.000000 0.000000 -0.000000 -0.000000 -0.000000 -0.000000 0.000000 0.000000 -0.000000 0.000000 0.000000 -6.221634 -11.503828 -4.023760 -23.061627 9.569250 -36.639826 0.046351 -43.170962 -0.011013 22.743627 -5.684961 15.979060 -1.064207 -7.954938 8.490079 2.373384 19.986141 -2.038315 0.000001 0.000002 0.000001 13.340869 -1.006687 10.682278 -0.167569 0.303401 -31.105645 0.000004 0.000000 0.000002 8.495445 -0.329584 -0.915307 0.231496 0.661233 -29.901872 -0.000001 0.000000 -0.000005 6.111749 3.150905 -16.210926 0.047080 0.322451 -30.125495 0.000000 0.000002 0.000002 -5.636025 7.709879 -13.878616 0.224364 0.276584 -46.588382 -0.000001 0.000000 0.000001 0.000000 -0.000001 -0.000002 -5.488234 10.658249 2.466470 -41.473879 -26.755579 30.079036 24.955841 111.862905 -23.308890 -8.702474 12.423110 -9.801930 0.265006 10.061085 -10.888517 1.383790 -17.412859 3.016265 -0.000000 0.000001 -0.000000 19.443604 11.174438 -13.340181 -0.118668 -0.322688 18.035623 -0.000001 0.000000 -0.000001 4.320461 2.436929 -4.811738 0.349145 -0.461231 26.890345 -0.000003 -0.000002 0.000004 -7.005631 -10.695163 5.719837 0.111898 -0.089197 26.155875 0.000001 0.000000 -0.000002 -19.433568 -20.238214 5.987834 0.223797 -0.085822 36.844581 0.000000 0.000002 -0.000001 0.000001 0.000002 0.000001 0.000002 0.000001 -0.000000 0.000002 -0.000001 0.000001 0.000002 0.000001 -0.000001 0.000002 0.000001 -0.000001 0.000002 0.000001 -0.000000 0.000002 -0.000001 0.000001 0.000002 0.000001 -0.000001 0.000002 0.000001 -0.000001 0.000002 0.000001 -0.000000 0.000002 -0.000001 0.000001 -0.000000 0.000001 -0.000000 -0.000000 0.000001 -0.000000 -0.000000 0.000001 -0.000000 
-1.079865 63.656311 0.805869 4.771081 -58.852024 8.732751 0.000000 -0.000001 0.000000 -32.622151 11.411169 22.818385 43.412232 -7.186139 -9.724660 -13.215187 -2.479536 -7.737523 -0.000000 0.000000 -0.000000 -0.000002 0.000002 0.000001 -31.609531 -8.919583 -25.034467 48.966275 2.597970 -7.637179 -22.556877 2.578643 19.727724 0.000000 -0.000002 -0.000000 -0.000000 -0.000000 -0.000000 10.572551 0.063525 -3.094540 7.278661 0.995589 -6.029102 7.868304 0.668159 -5.886729 -19.835339 24.498193 8.157674 -2.779486 23.606787 2.798132 -0.000000 0.000000 -0.000000 -0.000000 0.000000 -0.000000 -0.000000 0.000000 -0.000000 -0.000000 0.000000 -0.000000 -0.000001 0.000000 -0.000000 -0.000000 0.000000 -0.000000 -0.000001 0.000000 -0.000000 -0.000000 0.000000 -0.000000 -0.000000 0.000000 -0.000000 -6.438885 -13.164601 -4.289231 -20.844405 7.515343 -36.011346 -0.375290 -40.249028 -0.284902 20.711464 -9.083160 15.351151 -1.038629 -7.822547 8.542163 2.457028 20.247017 -1.940291 -0.000000 0.000002 0.000001 13.341817 -1.007629 10.381767 -0.167202 0.303652 -31.406238 0.000001 -0.000002 -0.000001 8.490659 -0.326631 -1.215858 0.233156 0.662212 -30.202458 0.000001 0.000000 0.000001 6.108706 3.154414 -16.511147 0.047239 0.324467 -30.426075 -0.000002 0.000001 -0.000002 -5.637288 7.711623 -14.177659 0.225509 0.277513 -46.888969 -0.000001 -0.000001 0.000001 -0.000001 0.000001 0.000001 -5.541684 9.386667 2.275656 -42.475543 -27.794020 27.164171 22.803324 114.466232 -20.890128 -4.795808 10.170857 -11.609657 0.377274 9.088730 -11.243427 1.701233 -18.294554 2.663709 0.000002 -0.000001 0.000002 19.445012 11.175360 -12.309052 -0.117723 -0.323573 19.070489 0.000002 0.000000 -0.000001 4.313790 2.427127 -3.776346 0.354727 -0.465006 27.925126 0.000002 0.000000 0.000003 -6.995288 -10.694691 6.754745 0.111817 -0.096124 27.190703 0.000004 -0.000001 -0.000000 -19.413725 -20.226888 7.025162 0.227311 -0.089636 37.879379 0.000006 0.000003 0.000003 0.000002 0.000002 -0.000000 -0.000000 -0.000000 -0.000000 -0.000000 0.000000 0.000001 -0.000000 -0.000000 -0.000000 -0.000000 -0.000000 -0.000000 -0.000000 -0.000000 -0.000000 -0.000000 0.000000 0.000002 -0.000000 -0.000000 -0.000000 -0.000000 -0.000000 -0.000000 -0.000000 -0.000000 -0.000000 -0.000000 0.000000 0.000002 0.000000 -0.000001 0.000000 0.000000 -0.000001 0.000000 0.000000 -0.000001 0.000000 
-1.601506 63.781067 0.915932 6.513165 -60.079218 10.808053 -0.000000 -0.000000 -0.000000 -31.841174 11.713785 22.227512 42.794321 -5.968860 -9.376584 -13.673983 -1.979839 -8.653764 -0.000000 0.000001 0.000000 0.000001 0.000000 0.000000 -32.004682 -8.027285 -24.984441 48.745923 2.829844 -7.552248 -22.794648 2.840751 19.558011 0.000000 0.000000 -0.000000 0.000000 0.000001 0.000001 9.970918 0.031105 -3.390816 5.412857 1.778451 -6.941524 6.233830 0.975671 -6.719551 -17.015548 23.940356 3.257990 -3.784283 21.629756 8.240863 -0.000000 -0.000000 -0.000000 -0.000000 -0.000000 -0.000000 -0.000000 -0.000000 0.000001 -0.000000 -0.000000 0.000000 -0.000000 -0.000001 0.000001 -0.000000 -0.000000 0.000000 -0.000000 -0.000001 0.000001 -0.000000 -0.000000 -0.000000 -0.000000 -0.000000 -0.000000 -6.702465 -14.957891 -4.571848 -18.021915 7.338821 -35.052551 -0.477859 -38.363308 -0.338803 19.213298 -11.154194 13.927275 -0.979496 -7.455852 8.678445 2.699619 20.954259 -1.668315 -0.000000 0.000003 -0.000003 13.344377 -1.010291 9.557772 -0.166136 0.304206 -32.230461 0.000001 0.000002 -0.000002 8.482572 -0.318397 -2.040060 0.237666 0.664828 -31.026708 0.000002 0.000002 0.000003 6.100518 3.164005 -17.334392 0.047634 0.330011 -31.250298 0.000002 -0.000003 0.000001 -5.619232 7.707125 -15.003455 0.228762 0.280024 -47.713178 0.000001 -0.000003 -0.000001 -0.000002 0.000001 -0.000003 -5.596364 8.117636 2.079307 -42.075359 -29.071126 25.529891 21.515823 116.635725 -19.361546 -0.202627 8.375942 -12.996913 0.500866 7.974835 -11.648258 2.059894 -19.306431 2.263680 0.000000 -0.000003 0.000001 19.446617 11.176467 -11.126332 -0.116624 -0.324504 20.255865 0.000000 -0.000000 -0.000002 4.304650 2.415557 -2.590498 0.361303 -0.469201 29.110533 0.000003 0.000001 -0.000001 -6.989928 -10.702575 7.938608 0.111975 -0.104126 28.376023 0.000002 -0.000002 0.000001 -19.401439 -20.220594 8.211970 0.231360 -0.093844 39.064792 -0.000002 -0.000002 0.000002 0.000001 -0.000002 -0.000005 0.000001 0.000001 -0.000000 0.000001 0.000000 -0.000002 0.000001 0.000001 -0.000000 0.000001 0.000001 -0.000000 0.000001 0.000001 -0.000000 0.000001 0.000000 -0.000002 0.000001 0.000001 -0.000000 0.000001 0.000001 -0.000000 0.000001 0.000001 -0.000000 0.000001 0.000000 -0.000002 -0.000000 -0.000000 -0.000000 -0.000000 -0.000000 -0.000000 -0.000000 -0.000000 -0.000000 
-2.382668 63.983284 1.069528 7.677068 -61.305695 12.181459 0.000000 0.000001 0.000000 -30.410454 12.151024 21.904425 41.793087 -5.069090 -8.983658 -14.153871 -1.367014 -9.644089 0.000000 0.000002 -0.000000 -0.000001 0.000003 -0.000001 -31.476558 -7.283680 -24.597048 48.155361 2.757113 -7.425982 -23.174962 3.131193 19.463838 0.000000 0.000000 0.000000 0.000000 0.000001 0.000000 9.401646 0.001373 -3.660679 3.106750 1.642270 -8.093138 4.027164 1.010947 -7.900990 -14.200326 23.558226 -1.824857 -3.513579 20.287861 10.479026 -0.000001 -0.000000 0.000000 -0.000001 -0.000000 0.000000 -0.000001 -0.000000 0.000000 -0.000001 -0.000000 0.000000 -0.000001 0.000000 0.000000 -0.000001 -0.000000 0.000000 -0.000001 0.000000 0.000000 -0.000001 -0.000000 0.000000 -0.000001 -0.000000 0.000000 -6.970878 -16.475499 -4.859276 -16.573502 10.147419 -34.139464 -0.206060 -37.784671 -0.168410 18.782590 -9.426706 9.926455 -0.892359 -6.907670 8.881328 3.057569 22.012774 -1.265167 0.000001 0.000002 0.000001 13.348088 -1.014344 8.326597 -0.164576 0.305118 -33.462015 0.000002 0.000002 0.000000 8.470787 -0.305804 -3.271505 0.244498 0.668644 -32.258277 -0.000000 0.000002 0.000004 6.099452 3.178683 -18.565245 0.052115 0.338241 -32.481788 -0.000002 0.000001 0.000000 -5.597884 7.702234 -16.236943 0.233588 0.283731 -48.944726 0.000002 -0.000003 0.000001 0.000001 -0.000001 0.000002 -5.673097 6.670779 1.984882 -39.956528 -30.758507 25.815262 19.616172 120.069617 -17.091316 4.611838 6.349232 -13.813222 0.623027 6.825583 -12.064241 2.424499 -20.352716 1.854923 -0.000002 -0.000001 0.000000 19.448257 11.177668 -9.904352 -0.115466 -0.325454 21.478865 0.000003 -0.000002 0.000002 4.293689 2.403200 -1.367015 0.368099 -0.473345 30.333533 0.000003 -0.000001 0.000002 -6.994993 -10.712233 9.159851 0.112258 -0.112088 29.599024 0.000000 -0.000001 0.000001 -19.401340 -20.222669 9.433958 0.235627 -0.098199 40.287765 -0.000000 0.000000 0.000002 0.000002 0.000001 0.000004 -0.000000 0.000003 -0.000002 -0.000000 0.000001 -0.000002 -0.000000 0.000003 -0.000001 -0.000000 0.000003 -0.000001 -0.000000 0.000003 -0.000002 -0.000000 0.000001 -0.000001 -0.000000 0.000003 -0.000001 -0.000000 0.000003 -0.000001 -0.000000 0.000003 -0.000002 -0.000000 0.000001 -0.000001 0.000000 0.000001 0.000000 0.000000 0.000001 0.000000 0.000000 0.000001 0.000000 
